<svg id="Capa_1" enable-background="new 0 0 512 512" height="512" viewBox="0 0 512 512" width="512" xmlns="http://www.w3.org/2000/svg"><g><path d="m477.702 128-53.794-31.058-26.865-9.737-3.141-7.587-53.922-31.132-18.26-.543-11.746-16.781-53.974-31.162-55.259 31.904-15.815 19.131-14.179-1.814-52.551 30.34-9.729 11.391-20.265 5.926-53.904 31.122 221.702 384z" fill="#ffe477"/><path d="m256 256-10 127 10 129 53.895-31.117 18.426-20.638 11.574 3.318 53.912-31.126 17.016-19.824 12.984 2.504 53.895-31.117v-63.013l-10-18.487 10-16.154v-60.693l-10-19.153 10-15.487v-63.013z" fill="#ff7c48"/><path d="m34.298 128v63.013l10 19.987-10 14.653v60.693l10 20.154-10 14.487v63.013l53.895 31.117 11.971-3.089 18.029 20.409 53.911 31.126 14.427-1.671 15.573 18.991 53.896 31.117v-123-133z" fill="#ffb655"/><path d="m34.297 286.346 53.896 31.117v-60.693l-53.896-31.117v-34.641l53.896 31.117v-63.013l24.639 8.452 5.361 8.868v63.013l53.911 31.126v-63.013l24.013 8.09 5.987 9.23v63.013l53.896 31.117 10 18.821-10 15.82-53.895-31.117v60.693l53.895 31.117 10 17.654-10 16.987-53.895-31.117v63.013l-30-17.321v-63.012l-53.911-31.126v63.013l-30-17.321v-63.013l-53.896-31.117v-34.64zm83.896 48.438 53.911 31.126v-60.693l-53.911-31.126z" fill="#0b799d"/><path d="m477.703 286.346-53.896 31.117v-60.693l53.896-31.117v-34.641l-53.896 31.117v-63.013l-21.859 6.847-8.141 10.474v63.013l-53.911 31.126v-63.013l-25.44 8.914-4.56 8.406v63.013l-53.896 31.116v34.641l53.896-31.117v60.693l-53.896 31.117v34.641l53.896-31.117v63.013l30-17.321v-63.012l53.911-31.126v63.013l30-17.321v-63.013l53.896-31.117zm-83.896 48.438-53.911 31.126v-60.693l53.911-31.126z" fill="#07485e"/><path d="m339.813 207.611-53.827-31.101 52.571-30.328 53.807 31.09 29.994-17.317-53.795-31.083 55.345-31.929-30.005-17.324-55.334 31.922-53.901-31.144 55.313-31.91-30.006-17.324-55.301 31.903-53.932-31.162-29.994 17.317 53.92 31.155-52.572 30.329-53.9-31.143-29.994 17.316 53.888 31.136-53.905 31.098 30.006 17.324 53.893-31.091 53.901 31.144-53.872 31.079 30.006 17.324 53.86-31.072 53.839 31.108zm-137.723-79.576 52.572-30.329 53.901 31.144-52.572 30.328z" fill="#0fa9dd"/></g></svg>