<?xml version="1.0" encoding="utf-8"?>
<!-- Generator: Adobe Illustrator 22.1.0, SVG Export Plug-In . SVG Version: 6.00 Build 0)  -->
<svg xmlns="http://www.w3.org/2000/svg" xmlns:xlink="http://www.w3.org/1999/xlink" version="1.1" id="Layer_1" x="0px" y="0px" viewBox="0 0 256 256" style="enable-background:new 0 0 256 256;" xml:space="preserve" width="512" height="512">
<style type="text/css">
	.st0{fill:#FFDF74;}
	.st1{fill:#FCE575;}
	.st2{fill:#FFD551;}
	.st3{fill:#F9BB32;}
	.st4{fill:#FFF4C1;}
	.st5{fill:#DB9C2E;}
	.st6{fill:#FFC34C;}
	.st7{fill:#FFEA63;}
	.st8{fill:#A56021;}
	.st9{fill:#E58D23;}
	.st10{fill:#CCC033;}
	.st11{fill:#99AF17;}
	.st12{fill:#FCDA4F;}
	.st13{fill:#8C4C17;}
	.st14{fill:#BF6C0D;}
	.st15{fill:#FFA730;}
	.st16{fill:#FF624B;}
	.st17{fill:#FCF9DE;}
	.st18{fill:#FFEACF;}
	.st19{fill:#FFD59A;}
	.st20{fill:#EACF32;}
	.st21{fill:#FF4B34;}
	.st22{fill:#FF9079;}
	.st23{fill:#FFB74B;}
</style>
<g>
	<g>
		<g>
			<path class="st12" d="M59.58,206.159v43.525c0,1.928-2.459,2.74-3.607,1.19l-7.893-10.655l-7.893,10.655     c-1.148,1.549-3.607,0.738-3.607-1.19v-43.525H59.58z"/>
		</g>
	</g>
	<g>
		<g>
			<g>
				<path class="st6" d="M52.58,206.159h-16v43.525c0,1.928,2.459,2.74,3.607,1.191l7.893-10.656l4.5,6.075V206.159z"/>
			</g>
		</g>
	</g>
	<g>
		<g>
			<path class="st10" d="M184.08,229.313h-152c-4.418,0-8-3.582-8-8v-204c0-4.418,3.582-8,8-8h152c4.418,0,8,3.582,8,8v204     C192.08,225.731,188.498,229.313,184.08,229.313z"/>
		</g>
	</g>
	<g>
		<g>
			<path class="st20" d="M184.08,224.313c-1.657,0-3-1.343-3-3v-52.469c0-1.657,1.343-3,3-3s3,1.343,3,3v52.469     C187.08,222.969,185.737,224.313,184.08,224.313z"/>
		</g>
	</g>
	<g>
		<g>
			<path class="st11" d="M52.08,221.313v-204c0-4.418,3.582-8,8-8h-28c-4.418,0-8,3.582-8,8v204c0,4.418,3.582,8,8,8h28     C55.662,229.313,52.08,225.731,52.08,221.313z"/>
		</g>
	</g>
	<g>
		<g>
			<rect x="24.08" y="36.063" class="st0" width="168" height="54"/>
		</g>
	</g>
	<g>
		<g>
			<rect x="24.08" y="36.063" class="st2" width="28" height="54"/>
		</g>
	</g>
	<g>
		<g>
			<path class="st14" d="M231.92,206.743l-20,0l0-155.833c0-3.047,2.47-5.518,5.518-5.518l8.964,0c3.047,0,5.518,2.47,5.518,5.518     L231.92,206.743z"/>
		</g>
	</g>
	<g>
		<g>
			<path class="st9" d="M223.92,201.743c-1.657,0-3-1.343-3-3V124.51c0-1.657,1.343-3,3-3s3,1.343,3,3v74.233     C226.92,200.4,225.577,201.743,223.92,201.743z"/>
		</g>
	</g>
	<g>
		<g>
			<path class="st4" d="M211.92,206.743l20,0l-8.237,18.497c-0.754,1.693-2.771,1.693-3.525,0L211.92,206.743z"/>
		</g>
	</g>
	<g>
		<g>
			<path class="st10" d="M231.92,61.378l-20,0V50.91c0-3.047,2.47-5.518,5.518-5.518l8.964,0c3.047,0,5.518,2.47,5.518,5.518V61.378     z"/>
		</g>
	</g>
	<g>
		<g>
			<path class="st10" d="M231.92,61.378l-20,0V50.91c0-3.047,2.47-5.518,5.518-5.518l8.964,0c3.047,0,5.518,2.47,5.518,5.518V61.378     z"/>
		</g>
	</g>
	<g>
		<g>
			<path class="st8" d="M225.438,45.392h0.965c0,0-0.001,0-0.001,0l-8.964,0c-3.047,0-5.518,2.47-5.518,5.518l0,155.833h8l0-155.833     C219.92,47.863,222.391,45.392,225.438,45.392z"/>
		</g>
	</g>
	<g>
		<g>
			<path class="st1" d="M219.92,206.743h-8l8.237,18.497c0.754,1.693,2.771,1.693,3.525,0l2.237-5.024L219.92,206.743z"/>
		</g>
	</g>
	<g>
		<g>
			<path class="st11" d="M225.438,45.392h0.965c0,0-0.001,0-0.001,0l-8.964,0c-3.047,0-5.518,2.47-5.518,5.518v10.467h8V50.91     C219.92,47.863,222.391,45.392,225.438,45.392z"/>
		</g>
	</g>
	<g>
		<g>
			<g>
				<path class="st5" d="M44.762,78.076c-6.381,0-10.838-3.684-10.838-8.958v-1h6.795l0.08,0.913      c0.179,2.038,1.624,3.207,3.963,3.207c2.504,0,4-1.151,4-3.079c0-2.13-2.082-2.794-5.479-3.7      c-4.134-1.102-9.278-2.474-9.278-8.898c0-5.334,4.243-8.918,10.559-8.918c5.931,0,10.042,3.327,10.475,8.475l0.091,1.083h-7.045      l-0.078-0.915c-0.113-1.328-1.304-2.698-3.71-2.765l-0.204-0.003c-1.037,0-3.448,0.281-3.448,2.883      c0,1.906,2.018,2.56,5.31,3.47c4.191,1.158,9.408,2.6,9.408,9.048C55.361,73.469,51.72,78.076,44.762,78.076z"/>
			</g>
		</g>
		<g>
			<g>
				<path class="st3" d="M74.026,77.105l-5.19-6.001c-1.212-1.401-3.513-0.544-3.513,1.308v3.384c0,1.105-0.895,2-2,2h-2.559      c-1.105,0-2-0.895-2-2V50.001c0-1.105,0.895-2,2-2h2.559c1.105,0,2,0.895,2,2v3.529c0,1.86,2.317,2.713,3.523,1.297l5.215-6.123      c0.38-0.446,0.937-0.703,1.523-0.703h3.066c1.714,0,2.634,2.016,1.511,3.311l-8.919,10.277      c-0.657,0.758-0.652,1.885,0.013,2.636l9.065,10.246c1.142,1.291,0.226,3.325-1.498,3.325h-3.281      C74.958,77.796,74.406,77.544,74.026,77.105z"/>
			</g>
		</g>
		<g>
			<g>
				<path class="st3" d="M84.084,75.796V49.961c0-1.105,0.895-2,2-2h13.357c1.105,0,2,0.895,2,2v1.72c0,1.105-0.895,2-2,2h-6.798      c-1.105,0-2,0.895-2,2v2.158c0,1.105,0.895,2,2,2h5.599c1.105,0,2,0.895,2,2v1.72c0,1.105-0.895,2-2,2h-5.599      c-1.105,0-2,0.895-2,2v2.519c0,1.105,0.895,2,2,2h6.798c1.105,0,2,0.895,2,2v1.719c0,1.105-0.895,2-2,2H86.084      C84.979,77.796,84.084,76.901,84.084,75.796z"/>
			</g>
		</g>
		<g>
			<g>
				<path class="st3" d="M111.042,75.796V55.72c0-1.105-0.895-2-2-2h-3.439c-1.105,0-2-0.895-2-2v-1.719c0-1.105,0.895-2,2-2H123      c1.105,0,2,0.895,2,2v1.719c0,1.105-0.895,2-2,2h-3.399c-1.105,0-2,0.895-2,2v20.076c0,1.105-0.895,2-2,2h-2.559      C111.938,77.796,111.042,76.901,111.042,75.796z"/>
			</g>
		</g>
		<g>
			<g>
				<path class="st3" d="M141.281,78.036c-12.321,0-20.332-13.212-11.375-26.975c0.197-0.302,0.48-0.554,0.802-0.715      c11.07-5.519,21.121-2.182,24.422,6.29L155.661,58h-7.56l-0.276-0.553c-1.263-2.525-3.465-3.806-6.544-3.806      c-5.174,0-8.518,3.61-8.518,9.198c0,5.526,3.423,9.238,8.518,9.238c3.08,0,5.281-1.281,6.544-3.807l0.276-0.553h7.56      l-0.531,1.363C152.945,74.689,147.767,78.036,141.281,78.036z"/>
			</g>
		</g>
		<g>
			<g>
				<path class="st3" d="M176.16,75.796v-8.158c0-1.105-0.895-2-2-2h-7.078c-1.105,0-2,0.895-2,2v8.158c0,1.105-0.895,2-2,2h-2.559      c-1.105,0-2-0.895-2-2V50.001c0-1.105,0.895-2,2-2h2.559c1.105,0,2,0.895,2,2v7.918c0,1.105,0.895,2,2,2h7.078      c1.105,0,2-0.895,2-2v-7.918c0-1.105,0.895-2,2-2h2.559c1.105,0,2,0.895,2,2v25.795c0,1.105-0.895,2-2,2h-2.559      C177.055,77.796,176.16,76.901,176.16,75.796z"/>
			</g>
		</g>
	</g>
	<g>
		<g>
			<path class="st14" d="M161.08,234.313h-14c-1.105,0-2-0.895-2-2v-226c0-1.105,0.895-2,2-2h14c1.105,0,2,0.895,2,2v226     C163.08,233.417,162.184,234.313,161.08,234.313z"/>
		</g>
	</g>
	<g>
		<g>
			<circle class="st11" cx="65.764" cy="192.341" r="9"/>
		</g>
	</g>
	<g>
		<g>
			<circle class="st11" cx="81.764" cy="212.341" r="9"/>
		</g>
	</g>
	<g>
		<g>
			<path class="st8" d="M153.08,232.313v-226c0-1.104,0.895-2,2-2h-8c-1.105,0-2,0.896-2,2v226c0,1.105,0.895,2,2,2h8     C153.975,234.313,153.08,233.417,153.08,232.313z"/>
		</g>
	</g>
</g>
</svg>
